<mxfile host="app.diagrams.net" agent="Mozilla/5.0 (Macintosh; Intel Mac OS X 10_15_7) AppleWebKit/537.36 (KHTML, like Gecko) Chrome/133.0.0.0 Safari/537.36" version="26.1.0">
  <diagram name="Page-1" id="9OhKOkV_mPs7GRqaQnFj">
    <mxGraphModel dx="984" dy="586" grid="1" gridSize="15" guides="1" tooltips="1" connect="1" arrows="1" fold="1" page="1" pageScale="1" pageWidth="850" pageHeight="1100" math="0" shadow="0">
      <root>
        <mxCell id="0" />
        <mxCell id="1" parent="0" />
        <mxCell id="GSTNSherqbm7E0yCV95N-1" value="&lt;span style=&quot;font-size: 14px;&quot;&gt;衣服穿搭信息&lt;/span&gt;" style="rounded=0;whiteSpace=wrap;html=1;" parent="1" vertex="1">
          <mxGeometry x="360" y="240" width="120" height="40" as="geometry" />
        </mxCell>
        <mxCell id="GSTNSherqbm7E0yCV95N-2" value="创建时间" style="ellipse;whiteSpace=wrap;html=1;" parent="1" vertex="1">
          <mxGeometry x="180" y="210" width="75" height="30" as="geometry" />
        </mxCell>
        <mxCell id="GSTNSherqbm7E0yCV95N-3" value="搭配标题" style="ellipse;whiteSpace=wrap;html=1;" parent="1" vertex="1">
          <mxGeometry x="225" y="180" width="75" height="30" as="geometry" />
        </mxCell>
        <mxCell id="GSTNSherqbm7E0yCV95N-4" value="场合" style="ellipse;whiteSpace=wrap;html=1;" parent="1" vertex="1">
          <mxGeometry x="255" y="150" width="75" height="30" as="geometry" />
        </mxCell>
        <mxCell id="GSTNSherqbm7E0yCV95N-5" value="天气" style="ellipse;whiteSpace=wrap;html=1;" parent="1" vertex="1">
          <mxGeometry x="300" y="120" width="75" height="30" as="geometry" />
        </mxCell>
        <mxCell id="GSTNSherqbm7E0yCV95N-6" value="图片" style="ellipse;whiteSpace=wrap;html=1;" parent="1" vertex="1">
          <mxGeometry x="345" y="90" width="75" height="30" as="geometry" />
        </mxCell>
        <mxCell id="GSTNSherqbm7E0yCV95N-7" value="款式" style="ellipse;whiteSpace=wrap;html=1;" parent="1" vertex="1">
          <mxGeometry x="450" y="120" width="75" height="30" as="geometry" />
        </mxCell>
        <mxCell id="GSTNSherqbm7E0yCV95N-8" value="风格" style="ellipse;whiteSpace=wrap;html=1;" parent="1" vertex="1">
          <mxGeometry x="495" y="150" width="75" height="30" as="geometry" />
        </mxCell>
        <mxCell id="GSTNSherqbm7E0yCV95N-9" value="材质" style="ellipse;whiteSpace=wrap;html=1;" parent="1" vertex="1">
          <mxGeometry x="525" y="180" width="75" height="30" as="geometry" />
        </mxCell>
        <mxCell id="GSTNSherqbm7E0yCV95N-10" value="详情" style="ellipse;whiteSpace=wrap;html=1;" parent="1" vertex="1">
          <mxGeometry x="570" y="210" width="75" height="30" as="geometry" />
        </mxCell>
        <mxCell id="GSTNSherqbm7E0yCV95N-12" value="" style="endArrow=none;html=1;rounded=0;exitX=0;exitY=0.5;exitDx=0;exitDy=0;" parent="1" source="GSTNSherqbm7E0yCV95N-1" target="GSTNSherqbm7E0yCV95N-2" edge="1">
          <mxGeometry width="50" height="50" relative="1" as="geometry">
            <mxPoint x="405" y="215" as="sourcePoint" />
            <mxPoint x="455" y="165" as="targetPoint" />
          </mxGeometry>
        </mxCell>
        <mxCell id="GSTNSherqbm7E0yCV95N-13" value="" style="endArrow=none;html=1;rounded=0;exitX=0;exitY=0;exitDx=0;exitDy=0;entryX=1;entryY=1;entryDx=0;entryDy=0;" parent="1" source="GSTNSherqbm7E0yCV95N-1" target="GSTNSherqbm7E0yCV95N-3" edge="1">
          <mxGeometry width="50" height="50" relative="1" as="geometry">
            <mxPoint x="405" y="215" as="sourcePoint" />
            <mxPoint x="315" y="195" as="targetPoint" />
          </mxGeometry>
        </mxCell>
        <mxCell id="GSTNSherqbm7E0yCV95N-14" value="" style="endArrow=none;html=1;rounded=0;entryX=1;entryY=1;entryDx=0;entryDy=0;" parent="1" target="GSTNSherqbm7E0yCV95N-4" edge="1">
          <mxGeometry width="50" height="50" relative="1" as="geometry">
            <mxPoint x="375" y="240" as="sourcePoint" />
            <mxPoint x="455" y="165" as="targetPoint" />
          </mxGeometry>
        </mxCell>
        <mxCell id="GSTNSherqbm7E0yCV95N-15" value="" style="endArrow=none;html=1;rounded=0;entryX=0.5;entryY=1;entryDx=0;entryDy=0;exitX=0.25;exitY=0;exitDx=0;exitDy=0;" parent="1" source="GSTNSherqbm7E0yCV95N-1" target="GSTNSherqbm7E0yCV95N-5" edge="1">
          <mxGeometry width="50" height="50" relative="1" as="geometry">
            <mxPoint x="390" y="225" as="sourcePoint" />
            <mxPoint x="455" y="165" as="targetPoint" />
          </mxGeometry>
        </mxCell>
        <mxCell id="GSTNSherqbm7E0yCV95N-16" value="" style="endArrow=none;html=1;rounded=0;entryX=0.5;entryY=1;entryDx=0;entryDy=0;exitX=0.45;exitY=-0.012;exitDx=0;exitDy=0;exitPerimeter=0;" parent="1" source="GSTNSherqbm7E0yCV95N-1" target="GSTNSherqbm7E0yCV95N-6" edge="1">
          <mxGeometry width="50" height="50" relative="1" as="geometry">
            <mxPoint x="413" y="225" as="sourcePoint" />
            <mxPoint x="455" y="165" as="targetPoint" />
          </mxGeometry>
        </mxCell>
        <mxCell id="GSTNSherqbm7E0yCV95N-17" value="" style="endArrow=none;html=1;rounded=0;exitX=0.583;exitY=-0.012;exitDx=0;exitDy=0;exitPerimeter=0;entryX=0.5;entryY=1;entryDx=0;entryDy=0;" parent="1" source="GSTNSherqbm7E0yCV95N-1" target="GSTNSherqbm7E0yCV95N-7" edge="1">
          <mxGeometry width="50" height="50" relative="1" as="geometry">
            <mxPoint x="405" y="215" as="sourcePoint" />
            <mxPoint x="455" y="165" as="targetPoint" />
          </mxGeometry>
        </mxCell>
        <mxCell id="GSTNSherqbm7E0yCV95N-18" value="" style="endArrow=none;html=1;rounded=0;exitX=0.75;exitY=0;exitDx=0;exitDy=0;entryX=0;entryY=1;entryDx=0;entryDy=0;" parent="1" source="GSTNSherqbm7E0yCV95N-1" target="GSTNSherqbm7E0yCV95N-8" edge="1">
          <mxGeometry width="50" height="50" relative="1" as="geometry">
            <mxPoint x="405" y="215" as="sourcePoint" />
            <mxPoint x="455" y="165" as="targetPoint" />
          </mxGeometry>
        </mxCell>
        <mxCell id="GSTNSherqbm7E0yCV95N-19" value="" style="endArrow=none;html=1;rounded=0;exitX=1;exitY=0;exitDx=0;exitDy=0;entryX=0;entryY=1;entryDx=0;entryDy=0;" parent="1" source="GSTNSherqbm7E0yCV95N-1" target="GSTNSherqbm7E0yCV95N-9" edge="1">
          <mxGeometry width="50" height="50" relative="1" as="geometry">
            <mxPoint x="405" y="215" as="sourcePoint" />
            <mxPoint x="455" y="165" as="targetPoint" />
          </mxGeometry>
        </mxCell>
        <mxCell id="GSTNSherqbm7E0yCV95N-20" value="" style="endArrow=none;html=1;rounded=0;exitX=1;exitY=0.5;exitDx=0;exitDy=0;" parent="1" source="GSTNSherqbm7E0yCV95N-1" target="GSTNSherqbm7E0yCV95N-10" edge="1">
          <mxGeometry width="50" height="50" relative="1" as="geometry">
            <mxPoint x="405" y="215" as="sourcePoint" />
            <mxPoint x="455" y="165" as="targetPoint" />
          </mxGeometry>
        </mxCell>
        <mxCell id="06KMO7T11eBWESfdQyWb-1" value="喜欢风格" style="ellipse;whiteSpace=wrap;html=1;" vertex="1" parent="1">
          <mxGeometry x="600" y="240" width="75" height="30" as="geometry" />
        </mxCell>
        <mxCell id="06KMO7T11eBWESfdQyWb-2" value="点击时间" style="ellipse;whiteSpace=wrap;html=1;" vertex="1" parent="1">
          <mxGeometry x="600" y="240" width="75" height="30" as="geometry" />
        </mxCell>
        <mxCell id="06KMO7T11eBWESfdQyWb-3" value="主键" style="ellipse;whiteSpace=wrap;html=1;" vertex="1" parent="1">
          <mxGeometry x="150" y="240" width="75" height="30" as="geometry" />
        </mxCell>
        <mxCell id="06KMO7T11eBWESfdQyWb-4" value="衣服分类" style="ellipse;whiteSpace=wrap;html=1;" vertex="1" parent="1">
          <mxGeometry x="420" y="90" width="75" height="30" as="geometry" />
        </mxCell>
        <mxCell id="06KMO7T11eBWESfdQyWb-6" value="" style="endArrow=none;html=1;rounded=0;entryX=0.307;entryY=1.033;entryDx=0;entryDy=0;entryPerimeter=0;exitX=0.5;exitY=0;exitDx=0;exitDy=0;" edge="1" parent="1" source="GSTNSherqbm7E0yCV95N-1" target="06KMO7T11eBWESfdQyWb-4">
          <mxGeometry width="50" height="50" relative="1" as="geometry">
            <mxPoint x="405" y="335" as="sourcePoint" />
            <mxPoint x="455" y="285" as="targetPoint" />
          </mxGeometry>
        </mxCell>
        <mxCell id="06KMO7T11eBWESfdQyWb-7" value="" style="endArrow=none;html=1;rounded=0;exitX=1;exitY=0.5;exitDx=0;exitDy=0;" edge="1" parent="1" source="06KMO7T11eBWESfdQyWb-3">
          <mxGeometry width="50" height="50" relative="1" as="geometry">
            <mxPoint x="405" y="335" as="sourcePoint" />
            <mxPoint x="360" y="270" as="targetPoint" />
          </mxGeometry>
        </mxCell>
        <mxCell id="06KMO7T11eBWESfdQyWb-8" value="" style="endArrow=none;html=1;rounded=0;entryX=0;entryY=0.5;entryDx=0;entryDy=0;exitX=1;exitY=0.75;exitDx=0;exitDy=0;" edge="1" parent="1" source="GSTNSherqbm7E0yCV95N-1" target="06KMO7T11eBWESfdQyWb-2">
          <mxGeometry width="50" height="50" relative="1" as="geometry">
            <mxPoint x="405" y="335" as="sourcePoint" />
            <mxPoint x="455" y="285" as="targetPoint" />
          </mxGeometry>
        </mxCell>
      </root>
    </mxGraphModel>
  </diagram>
</mxfile>
